<mxfile host="app.diagrams.net" agent="Mozilla/5.0 (X11; Linux x86_64; rv:128.0) Gecko/20100101 Firefox/128.0" version="26.0.5">
  <diagram name="Page-1" id="zkysmAf5zyOx_bckU7H6">
    <mxGraphModel dx="1434" dy="1816" grid="1" gridSize="10" guides="1" tooltips="1" connect="1" arrows="1" fold="1" page="1" pageScale="1" pageWidth="827" pageHeight="1169" math="0" shadow="0">
      <root>
        <mxCell id="0" />
        <mxCell id="1" parent="0" />
        <mxCell id="6Yxdrpfrj09yAU8AC4AO-1" value="&lt;font style=&quot;font-size: 26px; color: light-dark(rgb(26, 95, 180), rgb(237, 237, 237));&quot;&gt;LSTM Cell&lt;br&gt;&lt;/font&gt;" style="rounded=1;whiteSpace=wrap;html=1;strokeWidth=2;fillColor=#dae8fc;strokeColor=#6c8ebf;" vertex="1" parent="1">
          <mxGeometry x="240" y="320" width="320" height="160" as="geometry" />
        </mxCell>
        <mxCell id="6Yxdrpfrj09yAU8AC4AO-2" value="" style="endArrow=block;html=1;rounded=0;strokeWidth=2;endFill=1;" edge="1" parent="1">
          <mxGeometry width="50" height="50" relative="1" as="geometry">
            <mxPoint x="400" y="540" as="sourcePoint" />
            <mxPoint x="400" y="480" as="targetPoint" />
          </mxGeometry>
        </mxCell>
        <mxCell id="6Yxdrpfrj09yAU8AC4AO-3" value="" style="endArrow=block;html=1;rounded=0;strokeWidth=2;endFill=1;" edge="1" parent="1">
          <mxGeometry width="50" height="50" relative="1" as="geometry">
            <mxPoint x="560" y="360" as="sourcePoint" />
            <mxPoint x="620" y="360" as="targetPoint" />
          </mxGeometry>
        </mxCell>
        <mxCell id="6Yxdrpfrj09yAU8AC4AO-4" value="" style="endArrow=block;html=1;rounded=0;strokeWidth=2;endFill=1;" edge="1" parent="1">
          <mxGeometry width="50" height="50" relative="1" as="geometry">
            <mxPoint x="560" y="440" as="sourcePoint" />
            <mxPoint x="620" y="440" as="targetPoint" />
          </mxGeometry>
        </mxCell>
        <mxCell id="6Yxdrpfrj09yAU8AC4AO-5" value="" style="endArrow=block;html=1;rounded=0;strokeWidth=2;endFill=1;" edge="1" parent="1">
          <mxGeometry width="50" height="50" relative="1" as="geometry">
            <mxPoint x="180" y="359.5" as="sourcePoint" />
            <mxPoint x="240" y="359.5" as="targetPoint" />
          </mxGeometry>
        </mxCell>
        <mxCell id="6Yxdrpfrj09yAU8AC4AO-6" value="" style="endArrow=block;html=1;rounded=0;strokeWidth=2;endFill=1;" edge="1" parent="1">
          <mxGeometry width="50" height="50" relative="1" as="geometry">
            <mxPoint x="180" y="439.5" as="sourcePoint" />
            <mxPoint x="240" y="439.5" as="targetPoint" />
          </mxGeometry>
        </mxCell>
        <mxCell id="6Yxdrpfrj09yAU8AC4AO-7" value="&lt;font style=&quot;font-size: 26px;&quot;&gt;x&lt;sub&gt;t&lt;/sub&gt;&lt;/font&gt;" style="text;html=1;align=center;verticalAlign=middle;whiteSpace=wrap;rounded=0;" vertex="1" parent="1">
          <mxGeometry x="370" y="540" width="60" height="30" as="geometry" />
        </mxCell>
        <mxCell id="6Yxdrpfrj09yAU8AC4AO-8" value="&lt;font style=&quot;font-size: 26px;&quot;&gt;c&lt;sub&gt;t&lt;/sub&gt;&lt;/font&gt;" style="text;html=1;align=center;verticalAlign=middle;whiteSpace=wrap;rounded=0;" vertex="1" parent="1">
          <mxGeometry x="620" y="340" width="40" height="40" as="geometry" />
        </mxCell>
        <mxCell id="6Yxdrpfrj09yAU8AC4AO-9" value="&lt;font style=&quot;font-size: 26px;&quot;&gt;c&lt;sub&gt;t-1&lt;/sub&gt;&lt;/font&gt;" style="text;html=1;align=center;verticalAlign=middle;whiteSpace=wrap;rounded=0;" vertex="1" parent="1">
          <mxGeometry x="130" y="340" width="50" height="40" as="geometry" />
        </mxCell>
        <mxCell id="6Yxdrpfrj09yAU8AC4AO-10" value="&lt;font style=&quot;font-size: 26px;&quot;&gt;h&lt;sub&gt;t-1&lt;/sub&gt;&lt;/font&gt;" style="text;html=1;align=center;verticalAlign=middle;whiteSpace=wrap;rounded=0;" vertex="1" parent="1">
          <mxGeometry x="130" y="420" width="50" height="40" as="geometry" />
        </mxCell>
        <mxCell id="6Yxdrpfrj09yAU8AC4AO-11" value="&lt;font style=&quot;font-size: 26px;&quot;&gt;h&lt;sub&gt;t&lt;/sub&gt;&lt;/font&gt;" style="text;html=1;align=center;verticalAlign=middle;whiteSpace=wrap;rounded=0;" vertex="1" parent="1">
          <mxGeometry x="620" y="420" width="40" height="40" as="geometry" />
        </mxCell>
      </root>
    </mxGraphModel>
  </diagram>
</mxfile>
